<svg width="24" height="24" viewBox="0 0 24 24" fill="none" xmlns="http://www.w3.org/2000/svg">
<path fill-rule="evenodd" clip-rule="evenodd" d="M12 4C8.68629 4 6 6.68629 6 10V17C6 17.5523 5.55228 18 5 18C4.44772 18 4 17.5523 4 17V10C4 5.58172 7.58172 2 12 2C16.4183 2 20 5.58172 20 10V16C20 17.7272 19.4199 19.2443 18.3321 20.3321C17.2443 21.4199 15.7272 22 14 22C12.2728 22 10.7557 21.4199 9.66789 20.3321C8.58011 19.2443 8 17.7272 8 16V10C8 9.23676 8.35166 8.27215 8.96913 7.50031C9.61195 6.69679 10.6283 6 12 6C13.3717 6 14.3881 6.69679 15.0309 7.50031C15.6483 8.27215 16 9.23676 16 10V17C16 17.5523 15.5523 18 15 18C14.4477 18 14 17.5523 14 17V10C14 9.76324 13.8517 9.22785 13.4691 8.74969C13.1119 8.30321 12.6283 8 12 8C11.3717 8 10.8881 8.30321 10.5309 8.74969C10.1483 9.22785 10 9.76324 10 10V16C10 17.2728 10.4199 18.2557 11.0821 18.9179C11.7443 19.5801 12.7272 20 14 20C15.2728 20 16.2557 19.5801 16.9179 18.9179C17.5801 18.2557 18 17.2728 18 16V10C18 6.68629 15.3137 4 12 4Z" fill="#252831"/>
</svg>
