<svg width="24" height="24" viewBox="0 0 24 24" fill="none" xmlns="http://www.w3.org/2000/svg">
<path d="M5 10C5 9.44772 5.44772 9 6 9H8C8.55228 9 9 9.44772 9 10V14C9 14.5523 8.55228 15 8 15H6C5.44772 15 5 14.5523 5 14V10Z" fill="#252831"/>
<path fill-rule="evenodd" clip-rule="evenodd" d="M2 9C2 7.34315 3.34315 6 5 6H17C18.6569 6 20 7.34315 20 9V10H21C21.5523 10 22 10.4477 22 11V13C22 13.5523 21.5523 14 21 14H20V15C20 16.6569 18.6569 18 17 18H5C3.34315 18 2 16.6569 2 15V9ZM18 9C18 8.44772 17.5523 8 17 8H5C4.44772 8 4 8.44772 4 9V15C4 15.5523 4.44772 16 5 16H17C17.5523 16 18 15.5523 18 15V9Z" fill="#252831"/>
</svg>
