<svg width="24" height="24" viewBox="0 0 24 24" fill="none" xmlns="http://www.w3.org/2000/svg">
<path d="M18.3632 18.3641C18.7537 17.9736 18.7537 17.3404 18.3632 16.9499L13.4142 12.0008L18.3646 7.05037C18.7551 6.65985 18.7551 6.02668 18.3646 5.63616C17.9741 5.24563 17.3409 5.24563 16.9504 5.63616L11.9999 10.5866L7.04951 5.63615C6.65899 5.24563 6.02582 5.24563 5.6353 5.63615C5.24478 6.02668 5.24478 6.65984 5.6353 7.05037L10.5857 12.0008L5.63666 16.9499C5.24613 17.3404 5.24613 17.9736 5.63666 18.3641C6.02718 18.7546 6.66035 18.7546 7.05087 18.3641L11.9999 13.415L16.949 18.3641C17.3395 18.7546 17.9727 18.7546 18.3632 18.3641Z" fill="#252831"/>
</svg>
