<svg width="16" height="16" viewBox="0 0 16 16" fill="none" xmlns="http://www.w3.org/2000/svg">
<g clip-path="url(#clip0_628_14449)">
<path d="M6.09576 7.5032V7.49805C5.49773 7.49805 5.01514 7.99242 5.01514 8.60005C5.01514 9.20767 5.49773 9.70208 6.09576 9.70208C6.69379 9.70208 7.17642 9.2077 7.17642 8.6052C7.17642 7.99752 6.68854 7.5032 6.09576 7.5032Z" fill="white"/>
<path d="M8 0.1875C3.68528 0.1875 0.1875 3.68528 0.1875 8C0.1875 12.3147 3.68528 15.8125 8 15.8125C12.3147 15.8125 15.8125 12.3147 15.8125 8C15.8125 3.68528 12.3147 0.1875 8 0.1875ZM10.8904 12.1222C10.8904 12.1222 10.4969 11.6844 10.2137 11.2983C11.5776 10.9121 12.0918 10.1397 12.0918 10.1397C10.6737 11.0164 9.34934 11.3538 8 11.3099C6.65066 11.3537 5.32625 11.0164 3.90831 10.1397C3.90831 10.1397 4.42237 10.9121 5.78644 11.2983C5.50319 11.6845 5.10975 12.1222 5.10975 12.1222C2.76997 12.0707 1.8625 10.6392 1.81 10.7009C1.81 7.51344 3.3575 4.918 3.3575 4.918C4.74238 3.92425 6.03284 3.88294 6.27938 3.87778L6.43678 4.02712C4.66894 4.52147 3.81387 5.29391 3.81387 5.29391C5.33116 4.56106 6.76122 4.30328 8 4.28784C9.23881 4.30347 10.6687 4.56106 12.1861 5.29391C12.1861 5.29391 11.3311 4.52147 9.56325 4.02712L9.72062 3.87778C9.96719 3.88294 11.2576 3.92413 12.6425 4.918C12.6425 4.918 14.19 7.51337 14.19 10.7009C14.1375 10.6392 13.23 12.0707 10.8904 12.1222Z" fill="white"/>
<path d="M9.90439 7.49805V7.5032C9.31161 7.5032 8.82373 7.99758 8.82373 8.6052C8.82373 9.2077 9.30639 9.70208 9.90439 9.70208C10.5024 9.70208 10.985 9.2077 10.985 8.60005C10.985 7.99239 10.5024 7.49805 9.90439 7.49805Z" fill="white"/>
</g>
<defs>
<clipPath id="clip0_628_14449">
<rect width="16" height="16" fill="white"/>
</clipPath>
</defs>
</svg>
