<svg width="24" height="24" viewBox="0 0 24 24" fill="none" xmlns="http://www.w3.org/2000/svg">
<path fill-rule="evenodd" clip-rule="evenodd" d="M3 6.00019C3 4.34333 4.34315 3.00019 6 3.00019H11C11.5523 3.00019 12 3.4479 12 4.00019C12 4.55247 11.5523 5.00019 11 5.00019H6C5.44772 5.00019 5 5.4479 5 6.00019V18.0002C5 18.5525 5.44772 19.0002 6 19.0002H18C18.5523 19.0002 19 18.5525 19 18.0002V12.0002C19 11.4479 19.4477 11.0002 20 11.0002C20.5523 11.0002 21 11.4479 21 12.0002V18.0002C21 19.657 19.6569 21.0002 18 21.0002H6C4.34315 21.0002 3 19.657 3 18.0002V6.00019Z" fill="#252831"/>
<path d="M17.3143 3.4144C18.0954 2.63335 19.3617 2.63335 20.1427 3.4144C20.9238 4.19545 20.9238 5.46178 20.1427 6.24283L13.0717 13.3139C12.6811 13.7044 12.048 13.7044 11.6574 13.3139L10.2432 11.8997C9.85271 11.5092 9.85271 10.876 10.2432 10.4855L17.3143 3.4144Z" fill="#252831"/>
<path d="M8.55711 12.9715C8.33395 12.7484 7.95253 12.7442 7.86323 13.0469L7.20995 15.2613C7.00429 15.9584 7.59784 16.5519 8.29495 16.3463L10.5094 15.693C10.8121 15.6037 10.8079 15.2223 10.5847 14.9991L8.55711 12.9715Z" fill="#252831"/>
</svg>
