<svg width="24" height="24" viewBox="0 0 24 24" fill="none" xmlns="http://www.w3.org/2000/svg">
<mask id="mask0_159_3631" style="mask-type:alpha" maskUnits="userSpaceOnUse" x="0" y="0" width="24" height="24">
<rect width="24" height="24" fill="#D9D9D9"/>
</mask>
<g mask="url(#mask0_159_3631)">
<path d="M22 3.25V8.03594C22 8.72629 21.4404 9.28594 20.75 9.28594C20.0596 9.28594 19.5 8.72629 19.5 8.03594V6.26781L15.2331 10.5347C14.989 10.7787 14.6691 10.9008 14.3492 10.9008C14.0293 10.9008 13.7095 10.7788 13.4654 10.5346C12.9772 10.0465 12.9772 9.25504 13.4654 8.76687L17.7322 4.5H15.9641C15.2737 4.5 14.7141 3.94035 14.7141 3.25C14.7141 2.55965 15.2737 2 15.9641 2H20.75C21.4404 2 22 2.55965 22 3.25V3.25ZM8.76691 13.4653L4.5 17.7322V15.9641C4.5 15.2737 3.94035 14.7141 3.25 14.7141C2.55965 14.7141 2 15.2737 2 15.9641V20.75C2 21.4404 2.55965 22 3.25 22H8.03594C8.72629 22 9.28594 21.4404 9.28594 20.75C9.28594 20.0596 8.72629 19.5 8.03594 19.5H6.26777L10.5347 15.2331C11.0229 14.745 11.0229 13.9535 10.5347 13.4654C10.0466 12.9771 9.25508 12.9772 8.76691 13.4653V13.4653Z" fill="#252831"/>
</g>
</svg>
