<svg width="16" height="16" viewBox="0 0 16 16" fill="none" xmlns="http://www.w3.org/2000/svg">
<g clip-path="url(#clip0_628_14445)">
<path d="M8 0.25C3.72188 0.25 0.25 3.72188 0.25 8C0.25 12.2781 3.72188 15.75 8 15.75C12.2781 15.75 15.75 12.2781 15.75 8C15.75 3.72188 12.2781 0.25 8 0.25ZM5.79063 11.875C4.76291 11.875 3.77729 11.4667 3.05059 10.74C2.32388 10.0133 1.91562 9.02771 1.91562 8C1.91562 6.97229 2.32388 5.98666 3.05059 5.25996C3.77729 4.53326 4.76291 4.125 5.79063 4.125C6.76875 4.125 7.66875 4.46875 8.38437 5.13438L7.33437 6.15312C6.92188 5.75 6.35625 5.55625 5.79063 5.55625C4.45 5.55625 3.37812 6.66562 3.37812 7.99687C3.37812 9.32812 4.44688 10.4375 5.79063 10.4375C6.80937 10.4375 7.81875 9.84063 7.98125 8.77188H5.79063V7.44063H9.44375C9.48407 7.65387 9.50395 7.87048 9.50313 8.0875C9.50313 10.3 8.01875 11.875 5.79063 11.875ZM12.9844 8.55625V9.66562H11.875V8.55625H10.7656V7.44688H11.875V6.3375H12.9844V7.44688H14.0844V8.55625H12.9844Z" fill="white"/>
</g>
<defs>
<clipPath id="clip0_628_14445">
<rect width="16" height="16" fill="white"/>
</clipPath>
</defs>
</svg>
