<svg width="24" height="24" viewBox="0 0 24 24" fill="none" xmlns="http://www.w3.org/2000/svg">
<path d="M5 4C5 3.44772 5.44772 3 6 3C6.55228 3 7 3.44772 7 4V20C7 20.5523 6.55228 21 6 21C5.44772 21 5 20.5523 5 20V4Z" fill="#252831"/>
<path d="M9 10C9 9.44772 9.44772 9 10 9C10.5523 9 11 9.44772 11 10V20C11 20.5523 10.5523 21 10 21C9.44772 21 9 20.5523 9 20V10Z" fill="#252831"/>
<path d="M13 14C13 13.4477 13.4477 13 14 13C14.5523 13 15 13.4477 15 14V20C15 20.5523 14.5523 21 14 21C13.4477 21 13 20.5523 13 20V14Z" fill="#252831"/>
<path d="M17 6C17 5.44772 17.4477 5 18 5C18.5523 5 19 5.44772 19 6V20C19 20.5523 18.5523 21 18 21C17.4477 21 17 20.5523 17 20V6Z" fill="#252831"/>
</svg>
