<svg width="24" height="24" viewBox="0 0 24 24" fill="none" xmlns="http://www.w3.org/2000/svg">
<path fill-rule="evenodd" clip-rule="evenodd" d="M10.2927 6.58208C9.7822 6.07157 8.8897 5.55833 7.24303 5.9701C5.59071 6.38328 4.37176 7.61437 3.96688 9.13228C3.5695 10.622 3.92906 12.5137 5.70848 14.2928L11.296 19.8795C11.6867 20.2701 12.3175 20.27 12.7081 19.8791C13.9629 18.6235 15.9567 16.6287 18.2926 14.2929C20.0711 12.5143 20.4308 10.6226 20.0335 9.1326C19.6288 7.61453 18.4101 6.38328 16.7574 5.97011C15.1102 5.55829 14.2176 6.07162 13.7071 6.58208C13.4279 6.8613 13.2357 7.17087 13.1131 7.41594C13.0527 7.53679 13.0117 7.63703 12.9871 7.70267C12.9748 7.73533 12.9668 7.75893 12.9627 7.77166L12.9594 7.78174C12.8345 8.20721 12.444 8.49994 12 8.49997C11.556 8.5 11.1655 8.20732 11.0405 7.78187L11.0373 7.77177C11.0331 7.75904 11.0251 7.73543 11.0129 7.70277C10.9882 7.63712 10.9472 7.53687 10.8868 7.41601C10.7642 7.17092 10.572 6.86132 10.2927 6.58208ZM11.9999 5.48808C12.0897 5.38089 12.1872 5.27356 12.2929 5.16786C13.2824 4.17831 14.8898 3.44164 17.2425 4.02983C19.5898 4.61666 21.3709 6.38541 21.966 8.61734C22.5686 10.8773 21.9282 13.4856 19.7068 15.7071C17.3711 18.0427 15.3774 20.0374 14.1227 21.2929C12.9513 22.4651 11.0539 22.4656 9.88194 21.2938L4.29438 15.7071C2.07206 13.4852 1.43162 10.8768 2.03444 8.61683C2.62975 6.38501 4.41118 4.61665 6.75785 4.02984C9.11017 3.44161 10.7174 4.17837 11.7069 5.16786C11.8126 5.27356 11.9101 5.38089 11.9999 5.48808Z" fill="#252831"/>
</svg>
