<svg width="16" height="16" viewBox="0 0 16 16" fill="none" xmlns="http://www.w3.org/2000/svg">
<g clip-path="url(#clip0_628_14447)">
<path d="M8.01719 0.25C3.64125 0.25 0.25 3.44813 0.25 7.76781C0.25 10.0272 1.17844 11.9797 2.68969 13.3284C2.95062 13.5631 2.89688 13.6991 2.94125 15.1481C2.94474 15.2496 2.97302 15.3487 3.02361 15.4368C3.0742 15.5249 3.14557 15.5992 3.23149 15.6534C3.31741 15.7075 3.41528 15.7398 3.51655 15.7474C3.61782 15.7551 3.71943 15.7378 3.8125 15.6972C5.46594 14.9691 5.48719 14.9116 5.7675 14.9878C10.5578 16.3063 15.75 13.2406 15.75 7.76781C15.75 3.44813 12.3934 0.25 8.01719 0.25ZM12.6809 6.03531L10.3997 9.64688C10.3135 9.78268 10.2003 9.89923 10.067 9.98922C9.93369 10.0792 9.78325 10.1407 9.62509 10.1698C9.46693 10.199 9.30445 10.1951 9.14785 10.1585C8.99124 10.1219 8.84388 10.0534 8.715 9.95719L6.9 8.59875C6.81886 8.5379 6.72017 8.505 6.61875 8.505C6.51733 8.505 6.41864 8.5379 6.3375 8.59875L3.88844 10.4563C3.56156 10.7041 3.13344 10.3125 3.35375 9.96656L5.635 6.355C5.72111 6.21916 5.83437 6.10257 5.96766 6.01256C6.10094 5.92255 6.25139 5.86104 6.40957 5.83191C6.56775 5.80277 6.73024 5.80663 6.88685 5.84325C7.04347 5.87986 7.19082 5.94844 7.31969 6.04469L9.13406 7.40281C9.2152 7.46367 9.31389 7.49656 9.41531 7.49656C9.51674 7.49656 9.61542 7.46367 9.69656 7.40281L12.1469 5.54719C12.4731 5.29781 12.9012 5.68906 12.6809 6.03531Z" fill="white"/>
</g>
<defs>
<clipPath id="clip0_628_14447">
<rect width="16" height="16" fill="white"/>
</clipPath>
</defs>
</svg>
