<svg width="24" height="24" viewBox="0 0 24 24" fill="none" xmlns="http://www.w3.org/2000/svg">
<path fill-rule="evenodd" clip-rule="evenodd" d="M8 4C9.10457 4 10 4.89543 10 6C10 7.10457 9.10457 8 8 8C6.89543 8 6 7.10457 6 6C6 4.89543 6.89543 4 8 4Z" fill="#252831"/>
<path fill-rule="evenodd" clip-rule="evenodd" d="M16 4C17.1046 4 18 4.89543 18 6C18 7.10457 17.1046 8 16 8C14.8954 8 14 7.10457 14 6C14 4.89543 14.8954 4 16 4Z" fill="#252831"/>
<path d="M2 18.9999C2 18.8582 2.02946 18.7235 2.08258 18.6014C2.08813 18.5874 2.0949 18.5707 2.1029 18.5513C2.12536 18.4968 2.15759 18.4213 2.20019 18.3278C2.28532 18.1408 2.41226 17.8809 2.58587 17.5722C2.93214 16.9567 3.46968 16.1373 4.23963 15.3161C5.79049 13.6618 8.29013 12 12.0004 12C15.7107 12 18.2103 13.6618 19.7612 15.3161C20.5312 16.1373 21.0687 16.9567 21.415 17.5722C21.5886 17.8809 21.7155 18.1408 21.8006 18.3278C21.8432 18.4213 21.8755 18.4968 21.8979 18.5513C21.9092 18.5785 21.918 18.6005 21.9244 18.6169L21.9323 18.6372L21.935 18.6442L21.9364 18.6479C21.9776 18.7574 22 18.876 22 18.9999C22 19.5522 21.5523 19.9999 21 19.9999C20.5645 19.9999 20.1941 19.7215 20.0568 19.3331L20.0547 19.3277L20.0491 19.3139C20.0353 19.2805 20.0126 19.2271 19.9805 19.1566C19.9162 19.0154 19.8146 18.8066 19.6718 18.5528C19.3853 18.0433 18.9384 17.3627 18.3021 16.6839C17.0405 15.3382 15.0401 14 12.0004 14C8.9607 14 6.96035 15.3382 5.6987 16.6839C5.06241 17.3627 4.61557 18.0433 4.32902 18.5528C4.18623 18.8066 4.08466 19.0154 4.02037 19.1566C3.98826 19.2271 3.96556 19.2805 3.95177 19.3139C3.94488 19.3307 3.94022 19.3424 3.93774 19.3487L3.93643 19.352C3.79402 19.7306 3.4284 19.9999 3 19.9999C2.44772 19.9999 2 19.5522 2 18.9999Z" fill="#252831"/>
</svg>
