<svg width="24" height="24" viewBox="0 0 24 24" fill="none" xmlns="http://www.w3.org/2000/svg">
<path fill-rule="evenodd" clip-rule="evenodd" d="M8 4C9.10457 4 10 4.89543 10 6C10 7.10457 9.10457 8 8 8C6.89543 8 6 7.10457 6 6C6 4.89543 6.89543 4 8 4Z" fill="#252831"/>
<path fill-rule="evenodd" clip-rule="evenodd" d="M16 4C17.1046 4 18 4.89543 18 6C18 7.10457 17.1046 8 16 8C14.8954 8 14 7.10457 14 6C14 4.89543 14.8954 4 16 4Z" fill="#252831"/>
<path d="M2 13C2 13.1417 2.02946 13.2764 2.08258 13.3985C2.08813 13.4125 2.0949 13.4292 2.1029 13.4486C2.12536 13.5031 2.15759 13.5786 2.20019 13.6721C2.28532 13.8591 2.41226 14.119 2.58587 14.4277C2.93214 15.0432 3.46968 15.8626 4.23963 16.6838C5.79049 18.3381 8.29013 19.9999 12.0004 19.9999C15.7107 19.9999 18.2103 18.3381 19.7612 16.6838C20.5312 15.8626 21.0687 15.0432 21.415 14.4277C21.5886 14.119 21.7155 13.8591 21.8006 13.6721C21.8432 13.5786 21.8755 13.5031 21.8979 13.4486C21.9092 13.4214 21.918 13.3994 21.9244 13.383L21.9323 13.3627L21.935 13.3557L21.9364 13.352C21.9776 13.2425 22 13.1239 22 13C22 12.4477 21.5523 12 21 12C20.5645 12 20.1941 12.2784 20.0568 12.6668L20.0547 12.6722L20.0491 12.686C20.0353 12.7194 20.0126 12.7728 19.9805 12.8433C19.9162 12.9845 19.8146 13.1933 19.6718 13.4471C19.3853 13.9566 18.9384 14.6372 18.3021 15.316C17.0405 16.6617 15.0401 17.9999 12.0004 17.9999C8.9607 17.9999 6.96035 16.6617 5.6987 15.316C5.06241 14.6372 4.61557 13.9566 4.32902 13.4471C4.18623 13.1933 4.08466 12.9845 4.02037 12.8433C3.98826 12.7728 3.96556 12.7194 3.95177 12.686C3.94488 12.6692 3.94022 12.6575 3.93774 12.6512L3.93643 12.6479C3.79402 12.2693 3.4284 12 3 12C2.44772 12 2 12.4477 2 13Z" fill="#252831"/>
</svg>
