<svg width="24" height="24" viewBox="0 0 24 24" fill="none" xmlns="http://www.w3.org/2000/svg">
<path d="M13.0001 19C16.3138 19 19 16.3137 19 13C19 9.68629 16.3137 7 13 7C9.83065 7 7.23524 9.45734 7.01512 12.5707L9.29289 10.2929C9.68342 9.90237 10.3166 9.90237 10.7071 10.2929C11.0976 10.6834 11.0976 11.3166 10.7071 11.7071L6.70711 15.7071C6.51957 15.8946 6.26522 16 6 16C5.73478 16 5.48043 15.8946 5.29289 15.7071L1.29289 11.7071C0.902369 11.3166 0.902369 10.6834 1.29289 10.2929C1.68342 9.90237 2.31658 9.90237 2.70711 10.2929L5.01003 12.5958C5.22054 8.36534 8.71726 5 13 5C17.4183 5 21 8.58172 21 13C21 17.4182 17.4183 21 13.0001 21C13.0001 21 13.0001 21 13.0001 21C12.4478 21 12 20.5523 12 20C12 19.4477 12.4478 19 13.0001 19C13.0001 19 13.0001 19 13.0001 19Z" fill="#252831"/>
</svg>
