<svg width="24" height="24" viewBox="0 0 24 24" fill="none" xmlns="http://www.w3.org/2000/svg">
<mask id="mask0_369_17196" style="mask-type:alpha" maskUnits="userSpaceOnUse" x="0" y="0" width="24" height="24">
<rect width="24" height="24" fill="#040921"/>
</mask>
<g mask="url(#mask0_369_17196)">
<path fill-rule="evenodd" clip-rule="evenodd" d="M5.553 5.894C5.214 5.725 5 5.379 5 5V3C5 2.448 5.448 2 6 2C6.552 2 7 2.448 7 3V3.187C8.509 2.432 10.302 2 12 2C17.519 2 22 6.481 22 12C22 17.519 17.519 22 12 22C6.481 22 2 17.519 2 12C2 10.847 2.196 9.739 2.556 8.707C2.738 8.186 3.308 7.911 3.83 8.093C4.351 8.275 4.626 8.845 4.444 9.366C4.156 10.191 4 11.077 4 12C4 16.415 7.585 20 12 20C16.415 20 20 16.415 20 12C20 7.585 16.415 4 12 4C10.659 4 9.241 4.323 8.037 4.9L8.447 5.106C8.941 5.352 9.141 5.954 8.894 6.447C8.648 6.941 8.046 7.141 7.553 6.894L5.553 5.894ZM11 8.051V7C11 6.448 11.448 6 12 6C12.552 6 13 6.448 13 7V8H14C14.552 8 15 8.448 15 9C15 9.552 14.552 10 14 10H11.5C11.367 10 11.24 10.053 11.146 10.146C11.053 10.24 11 10.367 11 10.5C11 10.633 11.053 10.76 11.146 10.854C11.24 10.947 11.367 11 11.5 11H12.5C13.163 11 13.799 11.263 14.268 11.732C14.737 12.201 15 12.837 15 13.5C15 14.163 14.737 14.799 14.268 15.268C13.919 15.617 13.477 15.852 13 15.949V17C13 17.552 12.552 18 12 18C11.448 18 11 17.552 11 17V16H10C9.448 16 9 15.552 9 15C9 14.448 9.448 14 10 14H12.5C12.633 14 12.76 13.947 12.854 13.854C12.947 13.76 13 13.633 13 13.5C13 13.367 12.947 13.24 12.854 13.146C12.76 13.053 12.633 13 12.5 13C12.173 13 11.827 13 11.5 13C10.837 13 10.201 12.737 9.732 12.268C9.263 11.799 9 11.163 9 10.5C9 9.837 9.263 9.201 9.732 8.732C10.081 8.383 10.523 8.148 11 8.051V8.051Z" fill="#252831"/>
</g>
</svg>
