<svg width="24" height="24" viewBox="0 0 24 24" fill="none" xmlns="http://www.w3.org/2000/svg">
<path fill-rule="evenodd" clip-rule="evenodd" d="M15.968 3.5927C16.3285 3.23221 16.8957 3.20448 17.288 3.50951L20.1404 6.36194C20.42 6.72154 20.42 7.22814 20.1404 7.58774L17.288 10.4402C16.9284 10.7198 16.3116 10.7006 15.968 10.357C15.6244 10.0133 15.6052 9.39658 15.8848 9.03698L16.9068 8.00222C15.702 8.02167 14.3059 8.86374 12.7184 10.5284L12.4036 10.8718L11.9942 11.3407C11.6712 11.7169 11.6727 12.273 11.9976 12.6475L12.7082 13.4567C14.3158 15.141 15.7327 15.9886 16.9589 15.9995L15.8848 14.9127C15.5798 14.5204 15.6075 13.9532 15.968 13.5927C16.3285 13.2322 16.8957 13.2045 17.288 13.5095L20.1404 16.3619C20.42 16.7215 20.42 17.2281 20.1404 17.5877L17.288 20.4402C16.9284 20.7198 16.3125 20.7015 15.968 20.357C15.6235 20.0125 15.6052 19.3966 15.8848 19.037L16.912 17.9978L16.7374 17.9957C13.9443 17.9156 11.4367 16.263 10.278 13.8714C9.08295 16.3619 6.89918 18.0013 4.69995 18.0013C4.14767 18.0013 3.69995 17.5536 3.69995 17.0013C3.69995 16.449 4.14767 16.0013 4.69995 16.0013C6.1575 16.0013 7.11723 15.1445 8.63798 12.7222L8.92805 12.2513C9.02361 12.0962 9.02721 11.9013 8.93746 11.7428L8.63798 11.2137C7.07878 8.72194 6.10545 7.9998 4.69995 7.9998C4.14767 7.9998 3.69995 7.55209 3.69995 6.9998C3.69995 6.44752 4.14767 5.9998 4.69995 5.9998C7.05648 5.9998 8.43267 7.20955 10.2784 10.1306C12.1921 7.35693 13.9421 6.08706 16.7322 6.00549L16.962 6.0018L15.8848 4.9127C15.5798 4.52041 15.6075 3.95318 15.968 3.5927Z" fill="#252831"/>
</svg>
