<svg width="24" height="24" viewBox="0 0 24 24" fill="none" xmlns="http://www.w3.org/2000/svg">
<path d="M12 9.25C11.5306 9.25 11.15 9.63056 11.15 10.1V14.35C11.15 14.8194 11.5306 15.2 12 15.2H15.4C15.8694 15.2 16.25 14.8194 16.25 14.35C16.25 13.8806 15.8694 13.5 15.4 13.5H12.85V10.1C12.85 9.63056 12.4694 9.25 12 9.25Z" fill="#252831"/>
<path fill-rule="evenodd" clip-rule="evenodd" d="M9 4C8.44772 4 8 3.55228 8 3C8 2.44772 8.44772 2 9 2H15C15.5523 2 16 2.44772 16 3C16 3.55228 15.5523 4 15 4L13 4V5.0582C17.2232 5.55313 20.5 9.14389 20.5 13.5C20.5 18.1944 16.6944 22 12 22C7.30558 22 3.5 18.1944 3.5 13.5C3.5 9.14389 6.77683 5.55313 11 5.0582V4L9 4ZM12 20.3C15.7555 20.3 18.8 17.2555 18.8 13.5C18.8 9.74446 15.7555 6.7 12 6.7C8.24446 6.7 5.2 9.74446 5.2 13.5C5.2 17.2555 8.24446 20.3 12 20.3Z" fill="#252831"/>
</svg>
