<svg width="24" height="24" viewBox="0 0 24 24" fill="none" xmlns="http://www.w3.org/2000/svg">
<path fill-rule="evenodd" clip-rule="evenodd" d="M17.814 17.814C16.3261 19.3019 14.2705 20.2222 12 20.2222C7.45899 20.2222 3.77778 16.541 3.77778 12C3.77778 7.45899 7.45899 3.77778 12 3.77778V12L17.814 17.814ZM19.0711 19.0711C17.2614 20.8807 14.7614 22 12 22C6.47715 22 2 17.5228 2 12C2 6.47715 6.47715 2 12 2C14.6751 2 17.1049 3.05043 18.8994 4.76131C19.0143 4.8709 19.1267 4.98319 19.2363 5.09809C20.9361 6.87972 21.9846 9.28817 21.9998 11.9414C22.0001 11.984 22.0001 12.0265 21.9998 12.069C21.9818 14.7277 20.9263 17.1399 19.218 18.9211C19.1695 18.9716 19.1206 19.0216 19.0711 19.0711Z" fill="#252831"/>
</svg>
