<svg width="16" height="16" viewBox="0 0 16 16" fill="none" xmlns="http://www.w3.org/2000/svg">
<g clip-path="url(#clip0_628_14454)">
<path d="M4.73291 4.05078V10.3553H6.69382V11.6581L8.00018 10.3553H10.3965L11.922 8.83351V4.05078H4.73291ZM8.00018 8.39987H7.12927V5.79078H8.00018V8.39987ZM10.3956 8.39987H9.52382V5.79078H10.3956V8.39987Z" fill="white"/>
<path d="M8 0C6.41775 0 4.87103 0.469192 3.55544 1.34824C2.23985 2.22729 1.21447 3.47672 0.608967 4.93853C0.0034663 6.40034 -0.15496 8.00887 0.153721 9.56072C0.462403 11.1126 1.22433 12.538 2.34315 13.6569C3.46197 14.7757 4.88743 15.5376 6.43928 15.8463C7.99113 16.155 9.59966 15.9965 11.0615 15.391C12.5233 14.7855 13.7727 13.7602 14.6518 12.4446C15.5308 11.129 16 9.58225 16 8C16 5.87827 15.1571 3.84344 13.6569 2.34315C12.1566 0.842855 10.1217 0 8 0V0ZM12.7918 9.27273L10.1818 11.8773H8.21728L6.90909 13.1818H5.60364V11.8773H3.20819V4.92182L3.86091 3.18182H12.7918V9.27273Z" fill="white"/>
</g>
<defs>
<clipPath id="clip0_628_14454">
<rect width="16" height="16" fill="white"/>
</clipPath>
</defs>
</svg>
