<svg width="24" height="24" viewBox="0 0 24 24" fill="none" xmlns="http://www.w3.org/2000/svg">
<path d="M18.3509 12.9363C17.8351 13.1297 17.2604 12.8696 17.065 12.3552C17.065 12.3552 15.7913 9 12 9C8.20883 9 6.93454 12.3552 6.93454 12.3552C6.73911 12.8696 6.16439 13.1297 5.64865 12.9363C5.13153 12.7424 4.86952 12.166 5.06344 11.6488C5.05373 11.6759 5.20804 11.2844 5.43288 10.8847C5.67368 10.4566 6.04715 9.88732 6.58273 9.31603C7.66484 8.16178 9.41448 6.99997 11.9998 6.99997C14.5851 6.99997 16.3347 8.16178 17.4168 9.31603C18.0568 9.99872 18.5718 10.7878 18.9361 11.6488C19.13 12.166 18.868 12.7424 18.3509 12.9363Z" fill="#252831"/>
<path d="M14 18C14 19.1046 13.1046 20 12 20C10.8955 20 10 19.1046 10 18C10 16.8954 10.8955 16 12 16C13.1046 16 14 16.8954 14 18Z" fill="#252831"/>
<path d="M14.0637 14.3519C14.2061 14.7306 14.5716 15 15 15C15.5523 15 16 14.5523 16 14C16 13.7109 15.8571 13.4431 15.7188 13.1972C15.5835 12.9567 15.3741 12.6374 15.0729 12.3161C14.4595 11.6618 13.4599 11 11.9996 11C10.5393 11 9.53967 11.6618 8.92632 12.3161C8.56884 12.6974 8.24929 13.1551 8.06362 13.648C8.02246 13.7574 8.00004 13.8761 8.00004 14C8.00004 14.5523 8.44776 15 9.00004 15C9.44949 15 9.76896 14.718 9.94631 14.3285C9.99014 14.2322 10.1351 13.9509 10.3854 13.6839C10.7095 13.3382 11.2099 13 11.9996 13C12.7893 13 13.2897 13.3382 13.6138 13.6839C13.9052 13.9948 14.0541 14.3296 14.0662 14.3589L14.0645 14.3544L14.0637 14.3519Z" fill="#252831"/>
<path fill-rule="evenodd" clip-rule="evenodd" d="M21.9996 10C21.9996 10.3789 21.7153 11 20.9996 11C20.2839 11 20.0647 10.3537 20.0647 10.3537C20.0647 10.3537 19.8168 9.81111 19.6714 9.55276C19.3849 9.04334 18.938 8.36266 18.3018 7.68394C17.0401 6.33819 15.0398 5 12 5C8.96033 5 6.95997 6.33819 5.69833 7.68394C5.06204 8.36266 4.6152 9.04334 4.32865 9.55276C4.0789 9.99676 3.95478 10.3044 3.93736 10.3487C3.78328 10.7367 3.42348 11 2.99992 11C2.40342 11 2.00098 10.5 2.00098 10C2.00098 9.48077 2.33558 9.01653 2.5855 8.57224C2.93176 7.95666 3.4693 7.13734 4.23926 6.31606C5.79011 4.66181 8.28975 3 12 3C15.7103 3 18.21 4.66181 19.7608 6.31606C20.5308 7.13734 21.0683 7.95666 21.4146 8.57224C21.6474 8.98613 21.9996 9.50962 21.9996 10Z" fill="#252831"/>
</svg>
